<?xml version="1.0" encoding="utf-8"?>
<!-- Generator: Adobe Illustrator 26.0.2, SVG Export Plug-In . SVG Version: 6.00 Build 0)  -->
<svg version="1.1" id="Ebene_1" xmlns="http://www.w3.org/2000/svg" xmlns:xlink="http://www.w3.org/1999/xlink" x="0px" y="0px"
	 viewBox="0 0 283.5 141.7" style="enable-background:new 0 0 283.5 141.7;" xml:space="preserve">
<style type="text/css">
	.st0{fill:none;stroke:#0000FF;stroke-width:0.5669;stroke-miterlimit:10;}
</style>
<line class="st0" x1="91.3" y1="23" x2="151" y2="51.8"/>
<line class="st0" x1="91.3" y1="36.7" x2="151" y2="65.5"/>
<line class="st0" x1="91.3" y1="50.4" x2="151" y2="79.2"/>
<line class="st0" x1="91.3" y1="64.1" x2="151" y2="92.9"/>
<line class="st0" x1="91.3" y1="77.8" x2="151" y2="106.6"/>
<line class="st0" x1="91.3" y1="91.5" x2="151" y2="120.3"/>
<line class="st0" x1="91.3" y1="95" x2="151" y2="123.7"/>
<line class="st0" x1="91.3" y1="9.3" x2="151" y2="38.1"/>
<line class="st0" x1="91.3" y1="16.2" x2="151" y2="44.9"/>
<line class="st0" x1="91.3" y1="29.9" x2="151" y2="58.6"/>
<line class="st0" x1="91.3" y1="43.6" x2="151" y2="72.3"/>
<line class="st0" x1="91.3" y1="57.3" x2="151" y2="86"/>
<line class="st0" x1="91.3" y1="71" x2="151" y2="99.8"/>
<line class="st0" x1="91.3" y1="84.7" x2="151" y2="113.5"/>
<line class="st0" x1="91.3" y1="12.7" x2="151" y2="41.5"/>
<line class="st0" x1="91.3" y1="26.4" x2="151" y2="55.2"/>
<line class="st0" x1="91.3" y1="40.1" x2="151" y2="68.9"/>
<line class="st0" x1="91.3" y1="53.8" x2="151" y2="82.6"/>
<line class="st0" x1="91.3" y1="67.5" x2="151" y2="96.3"/>
<line class="st0" x1="91.3" y1="81.3" x2="151" y2="110"/>
<line class="st0" x1="91.3" y1="88.1" x2="151" y2="116.9"/>
<line class="st0" x1="91.3" y1="2.5" x2="151" y2="31.2"/>
<line class="st0" x1="91.3" y1="5.9" x2="151" y2="34.7"/>
<line class="st0" x1="91.3" y1="19.6" x2="151" y2="48.4"/>
<line class="st0" x1="91.3" y1="33.3" x2="151" y2="62.1"/>
<line class="st0" x1="91.3" y1="47" x2="151" y2="75.8"/>
<line class="st0" x1="91.3" y1="60.7" x2="151" y2="89.5"/>
<line class="st0" x1="91.3" y1="74.4" x2="151" y2="103.2"/>
</svg>
