<?xml version="1.0" encoding="utf-8"?>
<!-- Generator: Adobe Illustrator 26.0.2, SVG Export Plug-In . SVG Version: 6.00 Build 0)  -->
<svg version="1.1" id="Ebene_1" xmlns="http://www.w3.org/2000/svg" xmlns:xlink="http://www.w3.org/1999/xlink" x="0px" y="0px"
	 viewBox="0 0 283.5 141.7" style="enable-background:new 0 0 283.5 141.7;" xml:space="preserve">
<style type="text/css">
	.st0{fill:none;stroke:#0000FF;stroke-width:0.5669;stroke-miterlimit:10;}
	.st1{fill:#C84600;}
</style>
<line class="st0" x1="8.5" y1="23" x2="68.1" y2="51.8"/>
<line class="st0" x1="8.5" y1="36.7" x2="68.1" y2="65.5"/>
<line class="st0" x1="8.5" y1="50.4" x2="68.1" y2="79.2"/>
<line class="st0" x1="8.5" y1="64.1" x2="68.1" y2="92.9"/>
<line class="st0" x1="8.5" y1="77.8" x2="68.1" y2="106.6"/>
<line class="st0" x1="8.5" y1="91.5" x2="68.1" y2="120.3"/>
<line class="st0" x1="8.5" y1="95" x2="68.1" y2="123.7"/>
<line class="st0" x1="8.5" y1="9.3" x2="68.1" y2="38.1"/>
<line class="st0" x1="8.5" y1="16.2" x2="68.1" y2="44.9"/>
<line class="st0" x1="8.5" y1="29.9" x2="68.1" y2="58.6"/>
<line class="st0" x1="8.5" y1="43.6" x2="68.1" y2="72.3"/>
<line class="st0" x1="8.5" y1="57.3" x2="68.1" y2="86"/>
<line class="st0" x1="8.5" y1="71" x2="68.1" y2="99.8"/>
<line class="st0" x1="8.5" y1="84.7" x2="68.1" y2="113.5"/>
<line class="st0" x1="8.5" y1="12.7" x2="68.1" y2="41.5"/>
<line class="st0" x1="8.5" y1="26.4" x2="68.1" y2="55.2"/>
<line class="st0" x1="8.5" y1="40.1" x2="68.1" y2="68.9"/>
<line class="st0" x1="8.5" y1="53.8" x2="68.1" y2="82.6"/>
<line class="st0" x1="8.5" y1="67.5" x2="68.1" y2="96.3"/>
<line class="st0" x1="8.5" y1="81.3" x2="68.1" y2="110"/>
<line class="st0" x1="8.5" y1="88.1" x2="68.1" y2="116.9"/>
<line class="st0" x1="8.5" y1="2.5" x2="68.1" y2="31.2"/>
<line class="st0" x1="8.5" y1="5.9" x2="68.1" y2="34.7"/>
<line class="st0" x1="8.5" y1="19.6" x2="68.1" y2="48.4"/>
<line class="st0" x1="8.5" y1="33.3" x2="68.1" y2="62.1"/>
<line class="st0" x1="8.5" y1="47" x2="68.1" y2="75.8"/>
<line class="st0" x1="8.5" y1="60.7" x2="68.1" y2="89.5"/>
<line class="st0" x1="8.5" y1="74.4" x2="68.1" y2="103.2"/>
<g>
	<circle class="st1" cx="146.8" cy="14.1" r="2"/>
	<circle class="st1" cx="146.8" cy="20.6" r="2"/>
	<circle class="st1" cx="146.8" cy="53.4" r="2"/>
	<circle class="st1" cx="146.8" cy="27.2" r="2"/>
	<circle class="st1" cx="146.8" cy="66.6" r="2"/>
	<circle class="st1" cx="146.8" cy="40.3" r="2"/>
	<circle class="st1" cx="146.8" cy="46.9" r="2"/>
	<circle class="st1" cx="146.8" cy="60" r="2"/>
	<circle class="st1" cx="146.8" cy="33.8" r="2"/>
	<circle class="st1" cx="152.3" cy="17.8" r="2"/>
	<circle class="st1" cx="152.3" cy="24.4" r="2"/>
	<circle class="st1" cx="152.3" cy="57.2" r="2"/>
	<circle class="st1" cx="152.3" cy="30.9" r="2"/>
	<circle class="st1" cx="152.3" cy="70.3" r="2"/>
	<circle class="st1" cx="152.3" cy="44" r="2"/>
	<circle class="st1" cx="152.3" cy="50.6" r="2"/>
	<circle class="st1" cx="152.3" cy="63.7" r="2"/>
	<circle class="st1" cx="152.3" cy="37.5" r="2"/>
</g>
<g>
	<circle class="st1" cx="157.9" cy="14.1" r="2"/>
	<circle class="st1" cx="157.9" cy="20.6" r="2"/>
	<circle class="st1" cx="157.9" cy="53.4" r="2"/>
	<circle class="st1" cx="157.9" cy="27.2" r="2"/>
	<circle class="st1" cx="157.9" cy="66.6" r="2"/>
	<circle class="st1" cx="157.9" cy="40.3" r="2"/>
	<circle class="st1" cx="157.9" cy="46.9" r="2"/>
	<circle class="st1" cx="157.9" cy="60" r="2"/>
	<circle class="st1" cx="157.9" cy="33.8" r="2"/>
	<circle class="st1" cx="163.4" cy="17.8" r="2"/>
	<circle class="st1" cx="163.4" cy="24.4" r="2"/>
	<circle class="st1" cx="163.4" cy="57.2" r="2"/>
	<circle class="st1" cx="163.4" cy="30.9" r="2"/>
	<circle class="st1" cx="163.4" cy="70.3" r="2"/>
	<circle class="st1" cx="163.4" cy="44" r="2"/>
	<circle class="st1" cx="163.4" cy="50.6" r="2"/>
	<circle class="st1" cx="163.4" cy="63.7" r="2"/>
	<circle class="st1" cx="163.4" cy="37.5" r="2"/>
</g>
<g>
	<circle class="st1" cx="169" cy="14.1" r="2"/>
	<circle class="st1" cx="169" cy="20.6" r="2"/>
	<circle class="st1" cx="169" cy="53.4" r="2"/>
	<circle class="st1" cx="169" cy="27.2" r="2"/>
	<circle class="st1" cx="169" cy="66.6" r="2"/>
	<circle class="st1" cx="169" cy="40.3" r="2"/>
	<circle class="st1" cx="169" cy="46.9" r="2"/>
	<circle class="st1" cx="169" cy="60" r="2"/>
	<circle class="st1" cx="169" cy="33.8" r="2"/>
	<circle class="st1" cx="174.4" cy="17.8" r="2"/>
	<circle class="st1" cx="174.4" cy="24.4" r="2"/>
	<circle class="st1" cx="174.4" cy="57.2" r="2"/>
	<circle class="st1" cx="174.4" cy="30.9" r="2"/>
	<circle class="st1" cx="174.4" cy="70.3" r="2"/>
	<circle class="st1" cx="174.4" cy="44" r="2"/>
	<circle class="st1" cx="174.4" cy="50.6" r="2"/>
	<circle class="st1" cx="174.4" cy="63.7" r="2"/>
	<circle class="st1" cx="174.4" cy="37.5" r="2"/>
</g>
<g>
	<circle class="st1" cx="180" cy="14.1" r="2"/>
	<circle class="st1" cx="180" cy="20.6" r="2"/>
	<circle class="st1" cx="180" cy="53.4" r="2"/>
	<circle class="st1" cx="180" cy="27.2" r="2"/>
	<circle class="st1" cx="180" cy="66.6" r="2"/>
	<circle class="st1" cx="180" cy="40.3" r="2"/>
	<circle class="st1" cx="180" cy="46.9" r="2"/>
	<circle class="st1" cx="180" cy="60" r="2"/>
	<circle class="st1" cx="180" cy="33.8" r="2"/>
	<circle class="st1" cx="185.5" cy="17.8" r="2"/>
	<circle class="st1" cx="185.5" cy="24.4" r="2"/>
	<circle class="st1" cx="185.5" cy="57.2" r="2"/>
	<circle class="st1" cx="185.5" cy="30.9" r="2"/>
	<circle class="st1" cx="185.5" cy="70.3" r="2"/>
	<circle class="st1" cx="185.5" cy="44" r="2"/>
	<circle class="st1" cx="185.5" cy="50.6" r="2"/>
	<circle class="st1" cx="185.5" cy="63.7" r="2"/>
	<circle class="st1" cx="185.5" cy="37.5" r="2"/>
</g>
</svg>
